<?xml version="1.0" standalone="no"?>
<!DOCTYPE svg PUBLIC "-//W3C//DTD SVG 20010904//EN"
 "http://www.w3.org/TR/2001/REC-SVG-20010904/DTD/svg10.dtd">
<svg version="1.0" xmlns="http://www.w3.org/2000/svg"
 width="1496.000000pt" height="1496.000000pt" viewBox="0 0 1496.000000 1496.000000"
 preserveAspectRatio="xMidYMid meet">
<metadata>
Created by potrace 1.11, written by Peter Selinger 2001-2013
</metadata>
<g transform="translate(0.000000,1496.000000) scale(0.100000,-0.100000)"
fill="#000000" stroke="none">
<path d="M6808 11824 c-2 -1 -35 -6 -73 -9 -146 -14 -167 -17 -305 -46 -30 -6
-59 -12 -65 -13 -5 -1 -16 -5 -22 -9 -7 -5 -13 -6 -13 -3 0 3 -23 -2 -52 -10
-28 -9 -59 -17 -67 -19 -9 -2 -36 -11 -61 -20 -25 -9 -52 -18 -60 -20 -81 -18
-482 -211 -534 -257 -11 -10 -26 -18 -33 -18 -7 0 -13 -3 -13 -7 0 -5 -21 -20
-48 -35 -26 -15 -59 -38 -74 -52 -15 -15 -30 -26 -34 -26 -6 0 -82 -57 -94
-70 -3 -3 -18 -16 -35 -29 -132 -101 -395 -372 -500 -516 -16 -22 -32 -42 -35
-45 -12 -10 -128 -176 -161 -230 -18 -30 -35 -57 -38 -60 -4 -3 -15 -21 -25
-40 -11 -19 -22 -37 -25 -40 -6 -5 -23 -36 -95 -175 -22 -44 -44 -81 -48 -83
-5 -2 -8 -11 -8 -21 0 -9 -8 -28 -17 -41 -10 -14 -16 -25 -14 -25 1 0 -12 -31
-30 -70 -18 -38 -32 -76 -32 -82 0 -7 -4 -13 -9 -13 -4 0 -8 -7 -8 -15 0 -8
-4 -23 -10 -33 -11 -19 -69 -169 -75 -192 -2 -8 -11 -37 -20 -64 -9 -26 -18
-56 -20 -65 -2 -9 -9 -29 -16 -46 -6 -16 -13 -34 -15 -40 -1 -5 -14 -55 -29
-110 -14 -55 -29 -111 -31 -125 -3 -14 -10 -43 -16 -65 -13 -49 -17 -71 -22
-112 -3 -18 -7 -37 -11 -43 -3 -5 -7 -24 -9 -42 -9 -96 0 -88 -189 -157 -95
-35 -185 -69 -202 -76 -16 -7 -86 -36 -155 -63 -180 -73 -375 -157 -540 -235
-137 -64 -188 -87 -195 -87 -3 0 -23 -11 -45 -25 -22 -14 -40 -23 -40 -20 0 3
-17 -5 -37 -18 -21 -13 -83 -45 -138 -71 -55 -26 -106 -53 -114 -59 -7 -6 -20
-12 -29 -13 -8 -2 -18 -6 -21 -11 -3 -4 -33 -22 -66 -40 -33 -17 -85 -45 -115
-62 -30 -17 -63 -34 -73 -37 -9 -4 -17 -10 -17 -15 0 -5 -4 -9 -9 -9 -9 0
-222 -120 -231 -130 -3 -4 -45 -31 -95 -60 -49 -30 -125 -78 -169 -107 -43
-29 -82 -53 -87 -53 -5 0 -9 -4 -9 -8 0 -4 -15 -16 -32 -27 -36 -21 -200 -136
-208 -145 -3 -4 -26 -21 -52 -38 -25 -18 -53 -38 -60 -44 -7 -7 -42 -35 -78
-63 -36 -27 -74 -57 -85 -67 -11 -9 -60 -51 -110 -94 -96 -82 -317 -302 -375
-373 -19 -23 -47 -57 -61 -74 -15 -18 -47 -63 -72 -102 -26 -38 -51 -75 -57
-82 -5 -7 -10 -17 -10 -23 0 -5 -3 -10 -8 -10 -4 0 -13 -12 -19 -27 -26 -59
-65 -158 -69 -175 -2 -10 -6 -26 -8 -35 -2 -10 -9 -38 -14 -62 -15 -64 -8
-267 11 -319 9 -23 17 -46 18 -50 3 -15 21 -58 35 -84 8 -16 21 -41 29 -57 9
-16 22 -34 30 -41 8 -7 15 -17 15 -23 0 -6 44 -54 98 -107 96 -93 208 -175
327 -240 33 -17 66 -37 73 -42 6 -6 12 -8 12 -5 0 3 26 -7 58 -22 140 -69 482
-184 617 -208 17 -3 35 -9 41 -14 6 -5 13 -7 16 -4 2 3 31 -2 63 -10 32 -9 75
-18 94 -21 20 -2 47 -7 61 -11 14 -3 34 -7 45 -8 11 -1 36 -5 55 -9 154 -29
202 -36 325 -49 28 -3 66 -8 85 -11 31 -5 73 -9 205 -21 124 -11 146 -14 155
-20 5 -3 10 -1 10 5 0 6 4 9 9 5 14 -8 227 -22 471 -30 142 -5 752 -5 880 0
122 5 387 17 440 20 25 1 97 6 160 10 63 3 133 8 155 10 22 2 76 6 119 10 43
3 83 8 87 11 4 2 35 -30 69 -73 68 -88 106 -135 133 -167 11 -11 40 -45 65
-75 114 -132 375 -382 496 -476 21 -16 45 -36 52 -42 7 -7 16 -13 20 -13 4 0
12 -6 18 -14 15 -18 184 -136 195 -136 5 0 11 -4 13 -9 4 -10 185 -121 198
-121 4 0 10 -3 12 -7 3 -7 235 -129 248 -131 3 -1 28 -11 55 -23 28 -12 50
-21 50 -20 0 1 34 -12 75 -29 41 -17 82 -33 90 -35 8 -2 44 -13 80 -25 36 -12
72 -23 80 -25 8 -1 26 -7 40 -12 14 -6 31 -8 38 -6 6 3 12 1 12 -4 0 -5 8 -9
18 -10 15 0 60 -9 207 -38 17 -4 41 -8 55 -9 14 -2 52 -7 85 -12 74 -10 519
-11 596 -1 55 7 104 14 164 23 190 30 508 128 648 200 16 8 35 14 43 14 8 0
14 5 14 10 0 6 9 10 20 10 11 0 20 5 20 10 0 6 6 10 14 10 17 0 89 40 94 52 2
4 12 8 22 8 9 0 23 7 30 15 7 8 18 15 26 15 7 0 19 6 26 13 7 7 39 29 71 47
31 19 57 38 57 42 0 5 7 8 15 8 8 0 15 5 15 10 0 6 5 10 10 10 8 0 131 90 150
110 3 3 25 21 50 41 25 20 59 49 76 65 17 16 47 43 65 60 71 65 260 270 291
314 9 14 27 37 40 52 45 52 58 68 85 110 15 24 31 45 34 48 10 9 109 161 156
240 24 41 48 82 54 90 17 28 174 344 195 395 24 55 48 117 50 125 0 3 8 22 17
42 10 21 17 43 17 51 0 7 4 17 9 23 8 8 79 226 117 359 22 76 21 72 23 90 0 8
13 18 29 21 15 4 42 13 59 21 18 7 36 14 40 14 10 2 141 48 168 59 11 5 56 21
100 36 44 15 85 31 91 35 6 5 19 10 30 12 10 2 33 9 49 16 34 14 69 28 170 64
39 14 88 34 110 43 22 10 42 18 45 19 13 2 106 39 115 45 6 4 21 11 35 15 14
4 43 16 65 25 37 16 72 31 85 35 3 1 32 14 64 28 33 15 70 30 83 33 13 4 23
10 23 15 0 5 3 8 8 7 4 -1 24 6 46 15 21 9 40 17 41 17 4 0 142 64 285 131
145 69 571 282 646 323 218 120 280 155 376 212 127 75 240 146 359 223 47 31
92 61 101 66 57 37 234 168 236 176 2 5 10 9 17 9 7 0 15 4 17 8 2 4 36 33 76
65 65 50 131 105 221 186 43 38 211 203 211 207 0 2 12 16 28 33 123 131 228
281 302 435 36 75 50 112 76 211 25 91 25 295 1 355 -4 8 -8 27 -11 41 -12 74
-114 234 -207 328 -52 52 -172 151 -183 151 -3 0 -24 13 -48 29 -69 46 -195
110 -308 156 -107 44 -276 103 -308 108 -9 1 -21 5 -27 9 -5 3 -26 9 -45 14
-50 11 -50 11 -52 14 -3 2 -10 3 -103 25 -145 33 -167 38 -236 49 -19 3 -44 8
-56 10 -19 4 -23 0 -24 -22 -1 -30 -2 -36 -19 -102 -6 -25 -13 -54 -14 -65 -4
-25 -12 -46 -44 -115 -39 -85 -78 -138 -172 -231 l-86 -85 33 -50 c17 -27 32
-52 32 -56 1 -4 5 -17 10 -30 5 -13 9 -25 9 -28 0 -3 5 -17 11 -32 11 -30 15
-129 7 -168 -3 -14 -9 -38 -12 -55 -3 -16 -11 -36 -16 -42 -6 -7 -8 -13 -4
-13 5 0 -11 -34 -79 -161 -5 -11 -13 -19 -17 -19 -5 0 -8 -7 -8 -15 0 -8 -4
-15 -9 -15 -4 0 -20 -17 -33 -37 -29 -44 -170 -188 -248 -253 -29 -25 -60 -52
-69 -60 -9 -8 -46 -36 -81 -62 -36 -26 -74 -55 -85 -64 -11 -8 -51 -36 -90
-62 -38 -26 -72 -49 -75 -52 -3 -3 -14 -10 -25 -17 -11 -7 -68 -42 -127 -78
-59 -36 -112 -65 -117 -65 -5 0 -11 -4 -13 -8 -2 -4 -50 -34 -108 -65 -58 -32
-112 -61 -120 -66 -8 -5 -80 -41 -160 -81 -80 -40 -152 -76 -160 -81 -8 -5
-25 -13 -36 -18 -12 -5 -68 -32 -125 -59 -57 -27 -132 -62 -166 -76 -57 -24
-148 -64 -198 -86 -57 -26 -228 -90 -231 -87 -2 2 -6 55 -9 118 -3 63 -7 133
-10 156 -3 23 -7 68 -10 100 -6 63 -14 133 -20 173 -2 14 -6 43 -9 65 -7 50
-17 114 -22 140 -3 11 -11 56 -19 100 -18 100 -23 122 -29 143 -3 9 -7 29 -10
45 -3 15 -7 35 -10 45 -3 9 -7 28 -10 42 -7 39 -44 176 -73 270 -14 47 -26 90
-28 95 -1 6 -5 17 -8 25 -23 59 -89 257 -90 268 0 6 -4 12 -9 12 -4 0 -8 7 -8
15 0 8 -8 34 -19 58 -10 23 -38 87 -61 142 -43 99 -148 315 -188 388 -12 20
-19 37 -16 37 3 0 -2 7 -11 16 -9 9 -14 18 -12 20 5 5 120 13 277 19 58 2 105
5 105 5 0 4 426 12 662 13 l282 1 -1 65 c0 70 16 157 34 178 6 7 7 13 3 13 -4
0 -2 6 4 14 7 8 8 17 4 19 -10 6 -673 0 -858 -8 -71 -3 -177 -7 -235 -10 -58
-2 -143 -7 -190 -9 -47 -3 -124 -8 -172 -10 l-88 -5 -34 52 c-46 69 -108 159
-124 177 -7 8 -44 57 -83 108 -39 50 -75 92 -81 92 -6 0 -9 3 -5 6 3 4 1 12
-6 19 -7 7 -37 41 -67 75 -135 156 -377 386 -534 508 -45 34 -94 74 -111 87
-16 14 -35 25 -42 25 -6 0 -13 4 -15 9 -1 5 -50 39 -108 76 -143 93 -154 99
-160 100 -3 0 -25 12 -50 27 -25 15 -58 32 -75 40 -16 7 -32 15 -35 18 -9 11
-228 108 -315 140 -11 4 -31 12 -45 18 -14 6 -43 16 -65 22 -22 6 -49 15 -60
20 -11 5 -67 21 -125 35 -104 26 -120 30 -173 39 -15 3 -35 7 -45 10 -16 5
-72 13 -157 22 -22 2 -56 7 -75 10 -36 6 -427 14 -432 8z m-2977 -3616 c-3
-40 -5 -210 -5 -378 0 -275 3 -365 19 -525 3 -27 7 -72 10 -100 2 -27 7 -66
10 -85 3 -19 8 -51 10 -70 4 -45 27 -179 41 -250 3 -14 7 -38 10 -55 2 -16 7
-41 11 -55 3 -14 7 -29 9 -35 1 -5 5 -25 9 -44 3 -19 8 -37 10 -41 3 -4 7 -22
9 -41 6 -38 14 -74 16 -74 1 0 3 -7 5 -15 2 -8 11 -42 20 -75 9 -33 18 -67 20
-75 2 -8 4 -15 5 -15 2 0 6 -16 14 -50 2 -11 5 -20 6 -20 1 0 3 -7 5 -15 1 -8
24 -77 50 -153 26 -76 44 -141 41 -144 -3 -3 -90 -7 -193 -9 -239 -5 -249 -5
-305 -3 -27 1 -51 -1 -54 -4 -4 -3 -15 -2 -25 3 -12 7 -20 7 -24 0 -4 -6 -10
-8 -15 -5 -5 3 -76 8 -157 10 -82 3 -175 7 -208 10 -33 2 -94 7 -135 10 -41 3
-97 8 -125 11 -27 3 -68 7 -90 9 -22 3 -58 7 -80 10 -22 4 -51 8 -65 10 -36 5
-112 17 -135 21 -11 2 -46 9 -79 15 -47 8 -188 42 -266 64 -128 35 -311 114
-405 174 -58 36 -175 140 -175 154 0 5 -8 17 -18 26 -25 22 -63 120 -69 176
-21 206 191 476 612 779 50 36 95 70 102 76 7 5 15 10 18 10 3 0 28 16 55 35
27 19 54 35 59 35 5 0 11 7 15 15 3 8 15 15 26 15 11 0 20 4 20 10 0 5 11 12
25 16 14 3 25 10 25 14 0 4 14 13 30 20 17 7 30 16 30 20 0 4 11 11 25 14 14
4 25 11 25 16 0 6 6 10 14 10 8 0 22 8 32 18 10 9 18 15 18 13 1 -3 29 12 64
32 35 20 67 37 71 37 5 0 14 7 21 15 7 8 21 15 31 15 11 0 19 3 19 8 0 4 27
20 60 36 33 16 60 34 60 39 0 6 3 7 7 4 3 -4 20 2 37 12 34 21 412 210 464
232 17 8 32 17 32 21 0 5 5 8 10 8 6 0 25 6 43 13 18 8 36 16 42 18 5 2 53 25
105 51 52 26 98 47 101 48 3 0 3 -33 0 -72z"/>
<path d="M12338 10625 c-2 -2 -33 -6 -68 -9 -36 -3 -65 -5 -65 -6 0 -1 -9 -3
-20 -5 -74 -11 -110 -20 -186 -45 -100 -33 -224 -97 -289 -148 -39 -30 -131
-123 -173 -172 -17 -21 -77 -143 -77 -158 0 -6 -4 -12 -9 -12 -5 0 -8 -8 -7
-17 2 -10 -1 -31 -6 -48 -9 -31 -12 -154 -4 -190 13 -59 21 -84 39 -125 41
-91 105 -169 197 -242 46 -36 136 -91 155 -94 5 -1 36 -14 68 -28 31 -14 57
-24 57 -21 0 2 11 0 25 -5 62 -24 174 -38 305 -40 36 0 88 2 115 5 28 4 59 8
70 9 56 7 210 53 265 79 25 12 47 21 50 21 3 1 41 23 85 51 93 58 254 213 238
229 -4 3 -2 6 4 6 13 0 67 109 86 176 19 64 20 214 1 265 -7 22 -12 40 -12 42
4 5 -38 97 -44 97 -5 0 -8 6 -8 13 0 6 -13 27 -28 46 -33 42 -134 141 -144
141 -4 0 -13 6 -20 13 -19 19 -127 77 -144 77 -8 0 -14 5 -14 10 0 6 -8 10
-18 10 -10 0 -22 3 -26 7 -3 4 -12 8 -19 10 -7 1 -39 9 -72 18 -83 21 -112 26
-172 29 -28 2 -56 7 -62 10 -6 4 -11 3 -11 -3 0 -6 -11 -6 -29 -1 -16 4 -31 7
-33 5z"/>
</g>
</svg>
