<?xml version="1.0" encoding="utf-8"?>
<!-- Generator: Adobe Illustrator 22.0.1, SVG Export Plug-In . SVG Version: 6.00 Build 0)  -->
<svg version="1.1" id="Ebene_1" xmlns="http://www.w3.org/2000/svg" xmlns:xlink="http://www.w3.org/1999/xlink" x="0px" y="0px"
	 viewBox="0 0 374.4 217.7" style="enable-background:new 0 0 374.4 217.7;" xml:space="preserve">
<style type="text/css">
	.st0{fill:#7D4C32;}
	.st1{fill:#F3F2F3;}
	.st2{opacity:0.5;fill:#492E1B;enable-background:new    ;}
	.st3{fill:#F29B1F;}
	.st4{fill:#F3BC7E;}
	.st5{fill:#FFFFFF;}
</style>
<title>Element 2</title>
<g id="Ebene_2_1_">
	<g id="Ebene_1-2">
		
			<ellipse transform="matrix(0.9871 -0.1599 0.1599 0.9871 -15.0757 30.4241)" class="st0" cx="181.5" cy="108.9" rx="85.2" ry="109.4"/>
		<path class="st1" d="M191.8,189.6c0,0,41.1-19.2,2.7-66.7c-30.8-38.2-36-64.9-23.9-94.8c0,0-57.1,47.6,8.4,112.7
			C204.9,170,191.8,189.6,191.8,189.6z"/>
		<path class="st2" d="M198.4,217c46.5-7.1,76.7-61.2,67.3-120.9c-5.4-34.8-23-63.8-46-80.5c19.3,23.4,26.9,57.6,21.7,89.3
			c-5,32.4-26.2,56.8-53.9,63.8c-21.6,5.1-41.8,6.4-63.9,3.2c-3.3-0.5-6.4-1.4-9.5-2.6C133.4,202.2,165.6,222,198.4,217z"/>
		<path class="st3" d="M373.4,67.6c-1.7-4.8-5.5-9-11.1-12.5l0,0c-6-3.8-16.5-7.5-28.6-9.5c-0.9,7.3-2.8,10.7-8.6,15.6
			c1,1.2,1.8,2.6,2.3,4.1c3.4,10-9.6,22.8-33.3,35.4c-23.9,12.7-58.7,25.3-98.6,34.7c-5.6,1.3-11.1,2.5-16.6,3.7
			c-33.7,6.9-64.9,10.1-89.3,9.8c-28.3-0.4-47.5-5.6-50.9-15.6c-3.7-10.9,18.7-26.9,57.5-44.6l1.3-10.3
			c-46.6,16.5-84.1,42.2-93.7,59.1l0,0c-3.6,6.3-4.6,12.3-2.7,17.8c7.1,20.6,52.5,29.2,113.6,24.8c30.8-2.4,61.3-7.2,91.3-14.4
			c32.2-7.6,61.8-17.1,86.8-27.5c4.5-1.9,8.9-3.8,13.1-5.8C352.6,110.8,379.9,86.5,373.4,67.6z"/>
		<path class="st3" d="M283.6,50c-0.4-2.5,0-5.1,1.2-7.4c-12.4-0.1-26.5,0.3-38.8,1.2l4.3,7C262.3,50,274.9,49.8,283.6,50z"/>
		<path class="st4" d="M373.4,67.6c-1.7-4.8-5.5-9-11.1-12.5c25.4,28.7-17.3,55.7-80.2,79.9c-38.7,14.9-88.4,30.8-146.6,37
			C-15.3,188,3.1,138.6,3.6,137.4C0,143.7-1,149.7,0.9,155.2C8,175.8,53.4,184.4,114.5,180c30.8-2.4,61.3-7.2,91.3-14.4
			c32.2-7.6,61.8-17.1,86.8-27.5c4.5-1.9,8.9-3.8,13.1-5.8C352.6,110.8,379.9,86.5,373.4,67.6z"/>
		<path id="_Pfad_" class="st4" d="M32,128.8c-52.7,45.6,117.8,38.8,174,11.8C84.6,167.6,12.3,152.8,32,128.8z"/>
		
			<ellipse transform="matrix(0.9955 -9.514730e-02 9.514730e-02 0.9955 -3.1015 29.55)" class="st0" cx="308.3" cy="47.3" rx="22.4" ry="17"/>
		<path class="st5" d="M292.8,54c0,0,6.2,6.7,13.2-3.4c5.7-8.1,10.6-10.7,17.2-10.2c0,0-12.7-8.1-21.6,8.2
			C297.4,55.4,292.8,54,292.8,54L292.8,54z"/>
	</g>
</g>
</svg>
