<?xml version="1.0" encoding="utf-8"?>
<!-- Generator: Adobe Illustrator 21.1.0, SVG Export Plug-In . SVG Version: 6.00 Build 0)  -->
<svg version="1.1" id="Ebene_1" xmlns="http://www.w3.org/2000/svg" xmlns:xlink="http://www.w3.org/1999/xlink" x="0px" y="0px"
	 viewBox="0 0 250 250" style="enable-background:new 0 0 250 250;" xml:space="preserve">
<style type="text/css">
	.st0{fill:#4A2E1D;}
	.st1{fill:#CBBBA0;}
	.st2{fill:#F39200;}
	.st3{fill:#F7C07E;}
	.st4{fill:#6C4227;}
</style>
<g>
	<path class="st0" d="M179.750412,130.1202393c-0.7197113-5.3554077-2.0233459-10.8481216-3.3749847-16.4344788
		c-2.4927673-10.3027573-6.5791016-19.1014557-12.0246124-26.8721619
		c-6.1134491-8.7975235-13.1823578-15.4763489-21.5050201-19.8244629
		c-9.2089081-4.8327446-18.812973-7.5425224-28.6534653-5.1615944c-9.8404465,2.3809166-17.3235245,9.0152092-23.3046036,17.523243
		c-5.4144135,7.6717987-8.6983643,16.9254074-10.1138382,27.5446167c-1.2749252,9.4667053-2.3240128,19.577774,0.1687622,29.8805389
		c1.1088028,4.5827332,2.6613388,8.9325562,4.5149536,13.036911
		C117.567955,147.7460632,149.1337891,140.9631348,179.750412,130.1202393z"/>
	<path class="st0" d="M98.9374847,170.7828064c5.013649,5.5339508,10.7200623,9.9435577,16.7512741,13.0945282
		c9.2089081,4.8327332,19.1836624,6.4740753,29.0241623,4.0931396c9.8404388-2.3809204,18.1416473-8.2343903,24.1227264-16.7424316
		c4.5256348-6.4125061,8.2827301-14.1581726,10.2232056-22.7284698
		C153.2331848,159.5703888,126.1650238,165.5059662,98.9374847,170.7828064z"/>
	<path class="st1" d="M132.1743317,128.9244385c3.4115753-21.7284012,10.2285919-47.0072479-14.0629272-60.1453018
		l-0.5645599,0.5560379c14.8675537,14.9288254,7.3133392,37.4498749,4.849762,55.8729019
		c-0.975441,7.2287216-0.9614182,13.8851852,0.0378723,20.1401749c3.0051117-0.5337067,6.0016479-1.1212158,8.9937897-1.7349548
		C131.1520081,138.9789429,131.3566132,134.1297302,132.1743317,128.9244385z"/>
	<path class="st1" d="M129.1577759,164.4014282c3.1483765,5.5735474,7.2866211,10.9241486,12.446701,16.2116394l0.6966553-0.5879974
		c-2.6663361-5.8844604-5.0707245-11.4916534-6.95047-17.1300507
		C133.2902679,163.4133301,131.225235,163.912384,129.1577759,164.4014282z"/>
	<path class="st2" d="M191.5373077,128.6630554c-9.2703094,3.8654327-18.8103638,7.1412048-28.472229,9.9811859
		c-9.6639099,2.8405914-19.4550018,5.2496338-29.3124542,7.2832489c-9.864418,2.0007629-19.7718048,3.7066345-29.7062302,4.9498138
		c-4.9659195,0.6267548-9.9403458,1.1047821-14.9019928,1.5262756c-4.9625778,0.4099121-9.9219437,0.6937714-14.8594131,0.815567
		c-4.9369812,0.1261139-9.8525238,0.0833588-14.7044106-0.1620331c-4.8488579-0.2290039-9.6417503-0.6446686-14.2583046-1.300766
		c-2.3026657-0.3421783-4.570137-0.7231445-6.7317162-1.2248077c-2.1595802-0.4865417-4.2432175-1.0616302-6.0852165-1.7762299
		c-1.8424702-0.7029572-3.4587135-1.5491486-4.5151024-2.3563995c-0.5303326-0.3995972-0.9082184-0.7745514-1.1461105-1.0650482
		c-0.2401409-0.2962646-0.3541451-0.490387-0.445322-0.6954498c-0.0787029-0.2076721-0.1374855-0.4439087-0.1235447-0.8479919
		c0.0142231-0.3977966,0.1212311-0.9519348,0.3595028-1.6035461c0.4679756-1.3102417,1.4422302-2.932251,2.7031689-4.517807
		c2.5301056-3.2162781,6.0563927-6.316452,9.7908096-9.1983185c7.5369568-5.8063583,16.2140045-10.7261581,25.0815697-15.2373657
		c4.21772-2.1146164,8.118927-3.9460602,12.4651184-5.8480377c0,0,0.067955-3.9112701,0.6671524-6.6822739
		c0.9440308-4.3656845,1.4253387-5.9780502,1.4253387-5.9780502c-6.6278763,2.1456146-13.2060699,4.5106583-19.7098732,7.170845
		c-4.8671074,1.9800491-9.6820831,4.1507187-14.4299583,6.5579681c-4.7491455,2.4079895-9.4382668,5.0379715-14.0167885,8.0811539
		c-2.2927208,1.52034-4.53759,3.1664963-6.7403545,4.979805c-2.1984673,1.8224182-4.3582077,3.7920227-6.4085655,6.1031418
		c-2.0389576,2.312027-4.0201015,4.9416504-5.5568476,8.3474121c-0.757638,1.701828-1.3898478,3.6206665-1.7031698,5.76091
		c-0.3168163,2.1302032-0.2788124,4.4908295,0.236413,6.7737122c0.5191383,2.2815857,1.5061874,4.4413147,2.7187519,6.247818
		c1.2136316,1.8170929,2.6237068,3.3036652,4.0550203,4.5418854c2.8824959,2.4707489,5.8383713,4.0548859,8.7125511,5.3098602
		c5.7608013,2.4742279,11.3399944,3.7284088,16.8569546,4.5502472c11.0190544,1.6101227,21.7344475,1.3356171,32.302845,0.6390839
		c10.5654602-0.7388306,20.9834671-2.1265717,31.2706375-4.0469666c10.287674-1.9028015,20.4581451-4.2448578,30.4869766-7.0437317
		c20.0523224-5.5912933,39.6860504-12.6507874,58.4355164-21.8037109c1.1188812-0.5472107,2.2319336-1.1073914,3.3409576-1.6764679
		c-2.0100861-2.206604-3.2077789-5.2978058-3.7403259-7.9762344
		C193.7687073,127.724678,192.6548767,128.1988983,191.5373077,128.6630554z"/>
	<path class="st2" d="M237.5267944,88.5927963c-0.9269867-1.3145447-2.0266571-2.4232025-3.1847534-3.3681259
		c-2.3312836-1.8827744-4.8622894-3.1848907-7.4092102-4.2222672c-5.1121521-2.0562057-10.3432159-3.0864182-15.542984-3.8520508
		c-5.2075043-0.741394-10.4183502-1.0843964-15.6141357-1.2200775c-5.1959381-0.1526718-10.3814545-0.0696869-15.5517426,0.1552429
		c-5.9127197,0.2464752-11.8056641,0.6987381-17.6818542,1.2933502l3.9759216,5.4094238
		c4.647049-0.5280151,9.3056488-0.9345703,13.971817-1.1950226c10.0870514-0.5180283,20.2447205-0.4247513,30.0997009,1.0370026
		c4.9058685,0.7349701,9.7642975,1.8610153,14.1308746,3.699295c2.1697235,0.9205017,4.2108765,2.0487137,5.8184662,3.4439392
		c1.6190948,1.3885956,2.7201385,3.0057602,3.1008606,4.7224884c0.3737946,1.717247,0.0706482,3.6196594-0.8020477,5.5319595
		c-0.0208893,0.0464478-0.0454102,0.0925293-0.0668793,0.1389008c2.009552,1.4412918,3.5070953,3.2029572,4.4842224,5.2902756
		c0.5371094-0.9323959,1.0268707-1.9122238,1.4506378-2.9505768c0.5657959-1.4011078,1.0011292-2.9157639,1.1937103-4.5238571
		c0.1927185-1.6038513,0.1156616-3.3046112-0.2929993-4.9303513
		C239.1925201,91.4276962,238.453537,89.9018936,237.5267944,88.5927963z"/>
	<g>
		<path class="st0" d="M222.3982391,99.3421631c-3.1416779-0.1242294-6.4212494,0.7145386-9.6541443,2.2312164
			c-2.8357391,1.3531189-5.9284363,2.9282608-8.3364105,5.5460358c-2.475647,2.6223755-4.1730957,5.6679993-5.3328247,8.6084442
			c-1.3351135,3.3612289-1.8473511,6.8019867-1.4970703,9.9109268c0.3782196,3.5156784,1.7499695,6.6223831,4.2275543,8.9718552
			c2.4774628,2.3495026,5.6985016,3.6261597,9.1790924,3.7270508c3.1416931,0.1242371,6.6433105-0.4574127,9.9440613-1.978775
			c2.9032898-1.3577423,5.24823-3.9030457,7.7239075-6.5254669c2.4756775-2.6224289,4.1917572-5.3968735,5.3468323-8.405098
			c1.335144-3.3612442,1.9291992-6.6032867,1.5789337-9.7122269c-0.3782349-3.5156784-1.3480072-6.7181931-3.8933258-9.0630112
			C229.2074432,100.3036423,225.9465485,99.4384155,222.3982391,99.3421631z"/>
		<path class="st1" d="M203.2198486,132.4018555c1.6651154-7.47052,5.2748413-12.4186478,12.0657349-15.6787186
			c5.6711884-2.7062073,13.4318848-4.7389679,14.8585968-11.716301l0.2757568,0.049118
			c0.7749786,9.2777023-7.6169281,12.0350189-14.3541412,15.0870667
			c-6.0778198,2.7342148-9.1872101,7.0348969-12.5701904,12.3079529L203.2198486,132.4018555z"/>
	</g>
	<path class="st3" d="M135.9204865,153.155838c-2.2862244,0.4199982-4.5748749,0.8270569-6.8658295,1.2210541
		c-4.581749,0.7880554-9.1724548,1.5240784-13.7709656,2.2078857c-9.1970139,1.3676453-18.4250412,2.5265656-27.6746445,3.4753723
		c-8.0815582,0.8289185-16.0557861,1.3190002-24.1828003,1.2434845c-16.5203667-0.1536102-47.8255463-0.9851532-47.8164215-23.54776
		c-0.218894-0.0213165-0.4622564-0.0293274-0.7349815-0.0323181c-1.1224203,2.766861-2.010603,5.5859375-1.515749,8.6597748
		c1.2954454,8.0455627,8.8579311,12.2921295,15.8913898,14.6795502c10.152544,3.4461517,20.7496815,4.9032898,31.4499989,4.8368073
		c8.9214706-0.0554047,18.035202-0.3107452,26.9737549-1.3413086c16.8118362-1.9383087,33.4602737-5.607132,49.6286163-10.6261292
		c0.0306091-0.3131104,0.0339203-0.6785736,0.0343475-1.1092682
		C136.7620392,152.987381,136.3442535,153.0780029,135.9204865,153.155838z"/>
	<path class="st4" d="M98.5420685,76.6233597c-1.8147049,0.7117996-3.5908127,3.8559799-4.6233597,5.4623795
		c-1.3338852,2.0751953-2.4388885,4.2913055-3.3752365,6.5717087c-1.90448,4.6381989-3.1123047,9.5323868-4.1137924,14.4342957
		c-1.6736374,8.1917725-2.8896179,16.5944672-1.9355392,24.9008484c0.4689407,4.082695,1.4589462,8.0852127,2.6664047,12.0071945
		c0.606163,1.9689026,1.2696075,3.9196472,1.9524002,5.8631287c0.2908096,0.8277435,0.9020386,2.8700714,1.2000427,3.6012115
		l5.2451172-0.4579468l3.5928879-0.3623505l3.0385666-0.337326c-1.3140488-2.187561-4.3745956-13.2645874-5.4416809-20.2072601
		c-1.3639526-8.8740997-1.4528656-17.8825455-1.3517303-26.8411407c0.051506-4.5617752,0.5601044-9.0359039,1.0371628-13.5756683
		c0.2500534-2.3834839,0.5065689-4.7725067,1.0296783-7.1112823c0.13871-0.6201706,0.2960587-1.2361679,0.4719772-1.8477325
		C98.1327744,78.0386963,98.3635178,77.2484512,98.5420685,76.6233597z"/>
	<path class="st4" d="M103.303215,169.9299774c0,0,6.8133698,6.6621094,10.8903122,9.2668304
		c4.0769424,2.6047058,8.323761,4.4025269,8.323761,4.4025269s-8.7084122-9.6045837-11.6587296-15.1857605L103.303215,169.9299774z"
		/>
</g>
</svg>
